<svg width="596" height="500" viewBox="0 0 596 500" fill="none" xmlns="http://www.w3.org/2000/svg">
<path fill-rule="evenodd" clip-rule="evenodd" d="M15.0552 360.025C-37.793 254.822 53.3868 45.3211 212.535 157.106C371.682 268.89 479.832 184.86 543.065 227.473C606.299 270.086 614.623 416.323 418.774 477.703C222.925 539.082 67.9035 465.228 15.0552 360.025Z" fill="#DAFFCD"/>
<mask id="mask0_0_6" style="mask-type:luminance" maskUnits="userSpaceOnUse" x="61" y="31" width="535" height="467">
<path fill-rule="evenodd" clip-rule="evenodd" d="M83.4753 439.081C83.4753 439.081 198.042 515.339 340.109 493.065C482.175 470.792 535.541 413.012 535.541 413.012L499.263 255.342C499.263 255.342 579.132 197.73 590.142 136.084C601.152 74.4379 594.413 32.3552 560.629 32.3552C526.845 32.3552 478.499 145.059 452.899 140.765C427.298 136.472 419.878 76.7077 390.888 92.9093C361.899 109.111 372.205 20.1451 311.795 32.3552C251.386 44.5653 296.875 113.962 238.491 92.9093C180.108 71.8567 133.271 86.9137 117.548 125.593C101.826 164.271 45.1017 210.591 65.5885 279.028C86.0753 347.465 99.3003 341.813 97.2569 383.865C95.2135 425.918 83.4753 439.081 83.4753 439.081Z" fill="white"/>
</mask>
<g mask="url(#mask0_0_6)">
<path fill-rule="evenodd" clip-rule="evenodd" d="M152.48 279.028C152.48 279.028 145.576 289.354 143.508 324.649C141.439 359.945 137.84 571.41 137.84 571.41H171.409C171.409 571.41 185.369 433.813 187.475 407.356C189.581 380.899 201.751 280.888 201.751 280.888L152.48 279.028Z" fill="#6FBF44"/>
<path fill-rule="evenodd" clip-rule="evenodd" d="M195.267 333.815L184.854 323.018L168.604 571.411H171.409L195.267 333.815Z" fill="#2B8C6B"/>
<path d="M195.267 334.465L183.68 320.782" stroke="white" stroke-width="1.3" stroke-linecap="round"/>
<path d="M155.242 280.888C155.242 280.888 145.576 323.145 145.576 365.128C145.576 407.11 140.675 570.948 140.675 570.948" stroke="white" stroke-width="1.3" stroke-linecap="round"/>
<path fill-rule="evenodd" clip-rule="evenodd" d="M236.746 278.565C236.746 278.565 246.663 304.627 246.663 328.718C246.663 352.808 251.386 570.948 251.386 570.948H217.817C217.817 570.948 207.183 433.813 205.077 407.356C202.971 380.899 187.475 280.425 187.475 280.425L236.746 278.565Z" fill="#6FBF44"/>
<path d="M229.58 279.028C229.58 279.028 238.774 305.053 241.412 343.702C244.05 382.351 247.403 570.948 247.403 570.948" stroke="white" stroke-width="1.3" stroke-linecap="round"/>
<path fill-rule="evenodd" clip-rule="evenodd" d="M152.48 280.888C152.48 280.888 174.157 283.791 197.204 283.791C220.251 283.791 235.685 280.888 235.685 280.888H152.48Z" fill="white"/>
<path fill-rule="evenodd" clip-rule="evenodd" d="M176.57 173.347C176.57 173.347 143.738 176.099 130.38 186.601C117.022 197.102 95.2135 238.597 95.2135 238.597L123.643 259.715L138.26 238.597C138.26 238.597 141.495 272.358 152.48 280.888H235.685C235.685 280.888 248.499 269.602 252.591 238.597L302.909 234.365L299.628 194.625C299.628 194.625 248.738 172.601 202.719 173.431L176.57 173.347Z" fill="url(#paint0_linear_0_6)"/>
<path fill-rule="evenodd" clip-rule="evenodd" d="M101.735 232.568C97.7184 230.212 94.4319 235.497 90.7965 240.879C87.1611 246.261 84.4018 246.428 90.2843 250.066C96.1669 253.704 116.658 272.861 120.011 270.003C123.364 267.145 123.077 258.855 125.794 258.278C128.511 257.7 132.583 256.081 126.877 250.012C121.171 243.944 105.751 234.923 101.735 232.568Z" fill="#6FBF44"/>
<path fill-rule="evenodd" clip-rule="evenodd" d="M281.106 217.131C281.106 228.209 284.164 238.181 304.277 238.209C324.39 238.236 329.445 209.436 324.321 200.893C319.197 192.35 311.541 178.562 297.853 182.745C284.164 186.928 281.106 206.052 281.106 217.131Z" fill="#6FBF44"/>
<path fill-rule="evenodd" clip-rule="evenodd" d="M321.006 199.433C319.71 211.768 315.324 226.933 302.609 225.596C289.895 224.26 285.589 201.517 291.786 174.418C297.982 147.318 308.84 103.23 308.84 103.23L308.555 102.816C303.257 95.1409 299.497 86.5117 297.483 77.4059L294.461 71.2722C293.99 70.3148 294.312 69.1559 295.211 68.5796C295.945 68.1087 296.893 68.1411 297.594 68.6609L301.087 71.2546C302.03 71.9544 302.815 72.8442 303.393 73.8663L307.535 81.1992L307.503 52.8845C307.501 51.6177 308.464 50.5576 309.725 50.4371C311.06 50.3094 312.251 51.2767 312.399 52.6098L314.651 72.8245L318.829 49.3885C319.07 48.039 320.312 47.1047 321.675 47.248C323.054 47.3929 324.08 48.5894 324.012 49.9743L322.858 73.6872L329.71 56.0938C330.192 54.855 331.565 54.216 332.824 54.6443C334.095 55.0771 334.796 56.4337 334.403 57.7184C332.68 63.3498 328.435 77.3392 328.982 76.6786C329.495 76.06 332.64 70.2937 334.188 67.4358C334.68 66.527 335.77 66.1226 336.735 66.4923C337.776 66.891 338.309 68.0471 337.936 69.0976L330.451 90.1932L326.688 104.194C326.688 104.194 322.303 187.097 321.006 199.433Z" fill="#FFD1AB"/>
<path d="M308.076 79.9682C308.076 79.9682 320.056 87.7613 319.515 92.9093" stroke="white" stroke-width="1.3" stroke-linecap="round"/>
<path d="M330.784 77.019C330.784 77.019 323.618 71.7648 312.073 72.3784" stroke="white" stroke-width="1.3" stroke-linecap="round"/>
<path fill-rule="evenodd" clip-rule="evenodd" d="M174.022 140.877C174.022 140.877 177.256 150.678 175.639 160.377C174.022 170.076 174.022 173.836 171.409 175.386C171.409 175.386 181.24 183.93 190.981 183.93C200.721 183.93 209.683 175.386 209.683 175.386C209.683 175.386 203.928 173.304 203.928 162.254C203.928 151.204 204.711 137.756 204.711 137.756L174.022 140.877Z" fill="#FFD1AB"/>
<path fill-rule="evenodd" clip-rule="evenodd" d="M204.23 147.612C204.028 152.801 203.928 157.681 203.928 162.254C203.928 167.424 204.873 171.122 206.762 173.347C188.023 166.021 177.845 160.857 176.23 157.853C176.287 156.247 176.259 154.673 176.171 153.173C176.146 151.798 176.048 150.422 175.877 149.044L204.23 147.612Z" fill="#CF8B54"/>
<path fill-rule="evenodd" clip-rule="evenodd" d="M169.934 139.64C163.204 129.307 161.116 109.823 175.77 105.529C176.765 90.839 210.114 97.1888 214.358 112.842C218.601 128.495 209.87 150.658 197.588 153.312C185.306 155.966 176.664 149.973 169.934 139.64Z" fill="#18233D"/>
<path d="M182.38 106.965C182.38 106.965 194.787 111.257 202.719 111.257" stroke="white" stroke-width="1.3" stroke-linecap="round"/>
<path fill-rule="evenodd" clip-rule="evenodd" d="M176.569 114.162C180.517 112.63 191.151 116.193 195.765 116.983C199.434 117.612 204.389 118.68 206.762 115.071C206.024 134.938 207.696 129.351 209.755 129.574C210.175 129.448 210.619 129.38 211.079 129.38C213.671 129.38 215.772 131.528 215.772 134.178C215.772 136.827 213.671 138.975 211.079 138.975C209.87 138.975 208.769 138.508 207.937 137.741C207.943 146.148 204.395 162.055 189.8 162.055C175.206 162.055 173.631 148.989 171.871 137.408C171.553 137.478 171.222 137.515 170.883 137.515C168.291 137.515 166.19 135.367 166.19 132.718C166.19 130.068 168.291 127.92 170.883 127.92C171.066 127.92 171.026 130.444 171.871 130.148C174.329 128.801 173.882 121.914 176.569 114.162Z" fill="#FFD1AB"/>
<path d="M185.365 149.045C185.365 149.045 187.44 151.645 191.865 149.045" stroke="#18233D" stroke-width="1.3" stroke-linecap="round"/>
<path d="M188.204 131.435C189.125 134.907 186.197 142.202 185.596 144.116C184.996 146.03 188.437 144.116 188.437 144.116" stroke="#18233D" stroke-width="1.3" stroke-linecap="round"/>
<path d="M193.426 127.524C193.426 127.524 197.528 125.573 201.751 128.269" stroke="#18233D" stroke-width="1.3" stroke-linecap="round"/>
<path d="M176.655 127.939C176.655 127.939 180.529 125.571 185.013 127.813" stroke="#18233D" stroke-width="1.3" stroke-linecap="round"/>
<ellipse cx="197.07" cy="131.446" rx="1.30478" ry="1.29794" fill="#18233D"/>
<ellipse cx="181.412" cy="131.446" rx="1.30478" ry="1.29794" fill="#18233D"/>
<path d="M209.683 135.339L212.292 134.474" stroke="#18233D" stroke-width="1.3" stroke-linecap="round"/>
<path d="M171.409 133.609L168.8 132.744" stroke="#18233D" stroke-width="1.3" stroke-linecap="round"/>
<path d="M215.444 126.705L217.48 136.472" stroke="white" stroke-width="1.3" stroke-linecap="round"/>
<rect x="184.854" y="200.638" width="24.7" height="45.5" rx="1.3" fill="#FE8B6E"/>
<path fill-rule="evenodd" clip-rule="evenodd" d="M90.2844 250.066C90.2844 250.066 78.4333 284.57 99.9504 291.028C121.467 297.486 182.651 244.83 182.651 244.83C182.651 244.83 199.335 241.544 201.751 232.533C204.167 223.521 205.077 215.058 205.077 215.058L184.84 224.348V217.848C184.84 217.848 179.757 220.157 177.335 226.642C165.447 232.633 104.119 259.715 104.119 259.715L90.2844 250.066Z" fill="#FFD1AB"/>
<path d="M204.375 221.365C204.375 221.365 199.281 225.547 196.575 226.565" stroke="#18233D" stroke-width="1.3" stroke-linecap="round"/>
<path d="M204.375 225.265C204.375 225.265 199.281 229.447 196.575 230.465" stroke="#18233D" stroke-width="1.3" stroke-linecap="round"/>
<path d="M201.775 231.765C201.775 231.765 198.379 234.901 196.575 235.665" stroke="#18233D" stroke-width="1.3" stroke-linecap="round"/>
<path d="M97.2569 262.281C97.2569 262.281 126.759 249.588 137.84 244.092" stroke="white" stroke-width="1.3" stroke-linecap="round"/>
<path fill-rule="evenodd" clip-rule="evenodd" d="M391.833 136.01C391.833 136.01 379.593 135.271 376.74 145.193C373.886 155.114 375.04 195.407 364.249 205.013C353.458 214.619 381.481 237.638 414.52 228.265C447.559 218.893 445.945 208.505 441.272 200.349C436.599 192.194 436.052 152.868 421.789 137.207C407.526 121.546 391.833 136.01 391.833 136.01Z" fill="#18233D"/>
<path fill-rule="evenodd" clip-rule="evenodd" d="M359.756 288.366C359.756 288.366 349.864 341.515 357.268 370.405C364.671 399.295 378.857 455.903 378.857 455.903C378.857 455.903 370.448 475.553 370.448 506.565C370.448 537.578 366.478 571.065 366.478 571.065H389.103C389.103 571.065 412.033 466.997 415.075 442.884C416.268 433.434 408.452 389.376 406.563 353.179C405.239 327.802 407.786 278.565 407.786 278.565L359.756 288.366Z" fill="url(#paint1_linear_0_6)"/>
<path fill-rule="evenodd" clip-rule="evenodd" d="M438.861 287.665L500.999 571.065H477.939C477.939 571.065 452.695 512.961 448.99 500.145C445.285 487.329 442.499 463.051 442.499 463.051C442.499 463.051 415.363 381.926 405.708 353.687C394.991 322.339 385.46 307.084 383.999 287.665H438.861Z" fill="url(#paint2_linear_0_6)"/>
<path fill-rule="evenodd" clip-rule="evenodd" d="M390.344 197.965C390.344 197.965 363.457 198.882 357.369 208.43C351.282 217.979 363.995 262.932 363.995 262.932C363.995 262.932 355.524 289.432 357.369 293.773C359.215 298.113 440.439 296.454 443.861 296.454C447.282 296.454 436.875 262.932 436.875 262.932C436.875 262.932 452.899 228.909 452.899 213.437C452.899 197.965 390.344 197.965 390.344 197.965Z" fill="#6FBF44"/>
<path fill-rule="evenodd" clip-rule="evenodd" d="M357.999 294.743L406.413 243.465L426.899 245.336L411.067 250.181L412.565 252.343C412.565 252.343 400.486 274.513 392.449 282.961C384.411 291.409 372.426 296.765 372.426 296.765C372.426 296.765 365.74 296.638 362.215 296.144C358.69 295.65 357.999 294.743 357.999 294.743Z" fill="#2B8C6B"/>
<path d="M400.899 138.165C400.899 138.165 415.762 156.365 424.299 156.365" stroke="white" stroke-width="1.3" stroke-linecap="round"/>
<path fill-rule="evenodd" clip-rule="evenodd" d="M389.384 169.065C389.384 169.065 391.842 177.921 390.613 186.685C389.384 195.449 389.384 198.846 387.397 200.247C387.397 200.247 384.88 218.062 400.847 219.237C416.813 220.412 416.488 200.247 416.488 200.247C416.488 200.247 412.114 198.366 412.114 188.381C412.114 178.396 412.71 166.245 412.71 166.245L389.384 169.065Z" fill="#FFD1AB"/>
<path fill-rule="evenodd" clip-rule="evenodd" d="M412.253 175.151C412.101 179.839 412.025 184.249 412.025 188.381C412.025 193.053 412.737 196.394 414.161 198.404C400.04 191.785 392.371 187.118 391.154 184.404C391.198 182.953 391.176 181.531 391.11 180.175C391.091 178.933 391.017 177.689 390.888 176.444L412.253 175.151Z" fill="#CF8B54"/>
<path fill-rule="evenodd" clip-rule="evenodd" d="M394.679 146.922C401.019 145.078 402.194 151.038 406.358 154.148C410.522 157.259 417.037 159.825 418.881 160.026C419.256 159.912 419.654 159.851 420.065 159.851C422.385 159.851 424.266 161.792 424.266 164.186C424.266 166.58 422.385 168.521 420.065 168.521C418.984 168.521 417.997 168.099 417.253 167.406C417.258 175.003 414.082 189.375 401.019 189.375C387.955 189.375 386.546 177.57 384.97 167.105C384.685 167.169 384.389 167.202 384.086 167.202C381.766 167.202 379.885 165.261 379.885 162.867C379.885 160.473 381.766 158.532 384.086 158.532C384.249 158.532 394.535 154.924 394.679 146.922Z" fill="#FFD1AB"/>
<path d="M399.59 161.708C400.414 164.845 397.793 171.437 397.256 173.166C396.718 174.896 399.799 173.166 399.799 173.166" stroke="#18233D" stroke-width="1.3" stroke-linecap="round"/>
<path d="M404.264 158.174C404.264 158.174 407.936 156.411 411.716 158.847" stroke="#18233D" stroke-width="1.3" stroke-linecap="round"/>
<path d="M389.252 158.549C389.252 158.549 392.72 156.41 396.733 158.435" stroke="#18233D" stroke-width="1.3" stroke-linecap="round"/>
<ellipse cx="407.526" cy="161.717" rx="1.16792" ry="1.1728" fill="#18233D"/>
<ellipse cx="393.511" cy="161.717" rx="1.16792" ry="1.1728" fill="#18233D"/>
<path fill-rule="evenodd" clip-rule="evenodd" d="M396.236 177.505L403.362 176.964C403.362 176.964 402.35 180.563 399.799 180.563C397.248 180.563 396.236 177.505 396.236 177.505Z" fill="white"/>
<path d="M418.816 165.236L421.151 164.454" stroke="#18233D" stroke-width="1.3" stroke-linecap="round"/>
<path d="M384.557 163.672L382.221 162.89" stroke="#18233D" stroke-width="1.3" stroke-linecap="round"/>
<path fill-rule="evenodd" clip-rule="evenodd" d="M536.645 183.648C532.682 193.456 527.927 207.634 517.576 203.452C507.226 199.27 508.916 179.561 520.43 158.826C531.944 138.09 551.328 104.544 551.328 104.544L551.154 104.046C548.521 96.522 547.39 88.5545 547.823 80.5948L546.728 74.8716C546.551 73.9519 547.106 73.0496 548.006 72.7911C548.716 72.5873 549.478 72.8348 549.932 73.4166L552.264 76.4016C552.902 77.2177 553.362 78.1582 553.614 79.1627L555.369 86.1472L561.926 62.9604C562.229 61.8897 563.3 61.2281 564.393 61.4365C565.536 61.6546 566.297 62.7446 566.108 63.8932L563.288 81.0011L572.234 62.8259C572.763 61.7517 574.031 61.2675 575.141 61.716C576.264 62.1698 576.838 63.4211 576.45 64.5686L569.97 83.7008L579.805 70.9421C580.507 70.0304 581.8 69.8271 582.749 70.4792C583.722 71.148 583.985 72.4655 583.338 73.4527C580.557 77.6917 573.798 88.0494 574.409 87.6419C574.982 87.259 578.957 83.2969 580.924 81.3253C581.554 80.6935 582.552 80.6188 583.268 81.1511C584.055 81.736 584.225 82.8447 583.651 83.6394L572.489 99.089L566.07 109.666C566.07 109.666 540.608 173.84 536.645 183.648Z" fill="#FFD1AB"/>
<path d="M556.653 85.2525C556.653 85.2525 565.037 94.538 563.406 98.5768" stroke="white" stroke-width="1.3" stroke-linecap="round"/>
<path d="M576.279 89.2691C576.279 89.2691 571.466 83.0683 561.507 80.7724" stroke="white" stroke-width="1.3" stroke-linecap="round"/>
<path fill-rule="evenodd" clip-rule="evenodd" d="M432.099 202.366L458.366 198.671L506.624 175.756L548.722 106.965L569.899 112.443C569.899 112.443 539.367 192.081 528.343 203.482C517.319 214.884 439.509 247.365 439.509 247.365L432.099 202.366Z" fill="#6FBF44"/>
<path d="M506.199 175.865L508.799 183.665" stroke="white" stroke-width="1.3" stroke-linecap="round"/>
<path fill-rule="evenodd" clip-rule="evenodd" d="M412.135 191.473C412.135 191.473 419.864 191.697 422.302 199.717C424.74 207.737 423.088 233.799 431.085 240.559L423.226 249.635C423.226 249.635 389.413 241.383 380.583 220.55C371.753 199.717 390.153 191.674 390.153 191.674L388.816 198.295C388.816 198.295 381.842 204.372 384.855 213.39C387.868 222.407 407.992 237.736 418.011 239.78C416.075 230.939 414.611 215.238 415.584 206.662C416.557 198.086 411.82 195.595 411.82 195.595L412.135 191.473Z" fill="url(#paint3_linear_0_6)"/>
<mask id="mask1_0_6" style="mask-type:luminance" maskUnits="userSpaceOnUse" x="378" y="191" width="54" height="59">
<path fill-rule="evenodd" clip-rule="evenodd" d="M412.135 191.473C412.135 191.473 419.864 191.697 422.302 199.717C424.74 207.737 423.088 233.799 431.085 240.559L423.226 249.635C423.226 249.635 389.413 241.383 380.583 220.55C371.753 199.717 390.153 191.674 390.153 191.674L388.816 198.295C388.816 198.295 381.842 204.372 384.855 213.39C387.868 222.407 407.992 237.736 418.011 239.78C416.075 230.939 414.611 215.238 415.584 206.662C416.557 198.086 411.82 195.595 411.82 195.595L412.135 191.473Z" fill="white"/>
</mask>
<g mask="url(#mask1_0_6)">
<path fill-rule="evenodd" clip-rule="evenodd" d="M423.398 206.532L415.412 208.609C415.457 207.927 415.515 207.276 415.584 206.662C416.233 200.945 414.978 197.256 411.82 195.595L412.135 191.473C417.288 191.622 420.677 194.37 422.302 199.717C422.798 201.348 423.125 203.724 423.398 206.532ZM380.404 199.27C382.507 196.097 385.86 193.496 390.464 191.465L389.127 198.086C387.271 199.687 385.917 201.421 385.064 203.288L380.404 199.27Z" fill="url(#paint4_linear_0_6)"/>
<path d="M411.255 192.596C411.255 192.596 419.063 193.478 420.683 203.022C422.302 212.566 417.893 227.344 424.72 239.81" stroke="white" stroke-width="1.69"/>
<path fill-rule="evenodd" clip-rule="evenodd" d="M418.011 239.78L423.226 249.635C423.226 249.635 413.95 246.93 410.225 245.819C406.501 244.708 407.307 235.006 407.307 235.006C407.307 235.006 410.875 237.213 413.032 238.175C415.189 239.137 418.011 239.78 418.011 239.78Z" fill="url(#paint5_linear_0_6)"/>
<path d="M389.847 194.625C389.847 194.625 381.927 197.342 380.583 207.737C379.238 218.132 394.14 238.274 417.528 244.758" stroke="white" stroke-width="1.3" stroke-linecap="round"/>
</g>
<ellipse cx="11.1288" cy="13.1577" rx="11.1288" ry="13.1577" transform="matrix(-0.309017 0.951057 0.951057 0.309017 425.646 235.865)" fill="#F5BB37"/>
<mask id="mask2_0_6" style="mask-type:luminance" maskUnits="userSpaceOnUse" x="421" y="239" width="27" height="23">
<ellipse cx="11.1288" cy="13.1577" rx="11.1288" ry="13.1577" transform="matrix(-0.309017 0.951057 0.951057 0.309017 425.646 235.865)" fill="white"/>
</mask>
<g mask="url(#mask2_0_6)">
<path d="M425.792 249.088L421.652 254.934L420.024 253.731L424.164 247.884L425.792 249.088Z" fill="url(#paint6_linear_0_6)"/>
<path d="M429.098 254.985L426.111 259.557L424.442 258.415L427.429 253.842L429.098 254.985Z" fill="url(#paint7_linear_0_6)"/>
<path d="M434.063 257.792L432.226 262.525L430.37 261.748L432.207 257.015L434.063 257.792Z" fill="url(#paint8_linear_0_6)"/>
<path d="M439.736 257.543L437.667 263.452L435.695 263.117L437.764 257.209L439.736 257.543Z" fill="url(#paint9_linear_0_6)"/>
<path d="M444.723 256.876L443.635 260.721L441.674 261.04L442.763 257.195L444.723 256.876Z" fill="url(#paint10_linear_0_6)"/>
</g>
<ellipse cx="11.1288" cy="13.1577" rx="11.1288" ry="13.1577" transform="matrix(-0.309017 0.951057 0.951057 0.309017 426.538 234.208)" fill="url(#paint11_linear_0_6)"/>
<ellipse cx="8.42177" cy="9.8432" rx="8.42177" ry="9.8432" transform="matrix(-0.309017 0.951057 0.951057 0.309017 428.854 237.807)" stroke="white" stroke-width="0.845"/>
<path d="M430.384 249.62C430.087 249.525 429.859 249.27 429.79 248.955C429.72 248.639 429.823 248.329 430.059 248.145L432.154 246.507C432.243 246.438 432.29 246.324 432.28 246.203L432.048 243.363C432.022 243.044 432.168 242.755 432.429 242.611C432.69 242.466 433.012 242.495 433.268 242.686L435.554 244.388C435.652 244.461 435.773 244.481 435.88 244.442L438.378 243.533C438.659 243.431 438.977 243.508 439.208 243.734C439.438 243.961 439.534 244.289 439.457 244.591L438.776 247.279C438.747 247.394 438.774 247.521 438.85 247.618L440.625 249.896C440.782 250.097 440.848 250.34 440.811 250.581C440.754 250.955 440.445 251.231 440.072 251.226L437.365 251.186C437.252 251.184 437.144 251.245 437.085 251.341L435.685 253.658C435.617 253.771 435.526 253.859 435.416 253.92C435.215 254.031 434.971 254.039 434.746 253.942C434.522 253.846 434.351 253.661 434.264 253.423L433.273 250.709C433.231 250.593 433.138 250.503 433.025 250.467L430.384 249.62Z" fill="url(#paint12_linear_0_6)"/>
<path fill-rule="evenodd" clip-rule="evenodd" d="M364.619 202.636C364.619 202.636 352.922 205.203 348.473 220.377C344.024 235.551 330.622 267.314 335.75 285.918C337.878 293.639 347.06 296.887 358.444 294.889C374.488 292.072 389.474 278.665 406.099 253.004L395.583 243.034L361.908 264.561L364.619 202.636Z" fill="#6FBF44"/>
<path d="M361.899 264.265L352.799 273.365" stroke="white" stroke-width="1.3" stroke-linecap="round"/>
<path d="M367.789 236.965C365.841 248.906 361.899 264.265 361.899 264.265L395.699 243.134" stroke="white" stroke-width="1.3" stroke-linecap="round"/>
<rect x="409.999" y="216.165" width="16.9" height="31.2" rx="1.3" fill="#FE8B6E"/>
<path fill-rule="evenodd" clip-rule="evenodd" d="M396.999 244.142C396.999 244.142 404.26 234.898 406.188 231.936C408.117 228.973 410.312 225.905 410.312 225.905V231.936C410.312 231.936 422.503 226.326 423.208 222.665C424.315 230.004 425.673 232.117 421.149 239.604C416.624 247.09 403.95 251.265 403.95 251.265L396.999 244.142Z" fill="#FFD1AB"/>
<path d="M424.299 227.865C424.299 227.865 419.204 232.047 416.499 233.065" stroke="#18233D" stroke-width="1.3" stroke-linecap="round"/>
<path d="M424.299 231.765C424.299 231.765 419.204 235.947 416.499 236.965" stroke="#18233D" stroke-width="1.3" stroke-linecap="round"/>
<path d="M421.699 238.265C421.699 238.265 418.302 241.401 416.499 242.165" stroke="#18233D" stroke-width="1.3" stroke-linecap="round"/>
</g>
<mask id="mask3_0_6" style="mask-type:luminance" maskUnits="userSpaceOnUse" x="61" y="31" width="535" height="467">
<path fill-rule="evenodd" clip-rule="evenodd" d="M83.4753 439.081C83.4753 439.081 198.042 515.339 340.109 493.065C482.175 470.792 535.541 413.012 535.541 413.012L499.263 255.342C499.263 255.342 579.132 197.73 590.142 136.084C601.152 74.4379 594.413 32.3552 560.629 32.3552C526.845 32.3552 478.499 145.059 452.899 140.765C427.298 136.472 419.878 76.7077 390.888 92.9093C361.899 109.111 372.205 20.1451 311.795 32.3552C251.386 44.5653 296.875 113.962 238.491 92.9093C180.108 71.8567 133.271 86.9137 117.548 125.593C101.826 164.271 45.1017 210.591 65.5885 279.028C86.0753 347.465 99.3003 341.813 97.2569 383.865C95.2135 425.918 83.4753 439.081 83.4753 439.081Z" fill="white"/>
</mask>
<g mask="url(#mask3_0_6)">
<path fill-rule="evenodd" clip-rule="evenodd" d="M152.48 279.028C152.48 279.028 145.576 289.354 143.508 324.649C141.439 359.945 137.84 571.41 137.84 571.41H171.409C171.409 571.41 185.369 433.813 187.475 407.356C189.581 380.899 201.751 280.888 201.751 280.888L152.48 279.028Z" fill="#6FBF44"/>
<path fill-rule="evenodd" clip-rule="evenodd" d="M195.267 333.815L184.854 323.018L168.604 571.411H171.409L195.267 333.815Z" fill="#2B8C6B"/>
<path d="M195.267 334.465L183.68 320.782" stroke="white" stroke-width="1.3" stroke-linecap="round"/>
<path d="M155.242 280.888C155.242 280.888 145.576 323.145 145.576 365.128C145.576 407.11 140.675 570.948 140.675 570.948" stroke="white" stroke-width="1.3" stroke-linecap="round"/>
<path fill-rule="evenodd" clip-rule="evenodd" d="M236.746 278.565C236.746 278.565 246.663 304.627 246.663 328.718C246.663 352.808 251.386 570.948 251.386 570.948H217.817C217.817 570.948 207.183 433.813 205.077 407.356C202.971 380.899 187.475 280.425 187.475 280.425L236.746 278.565Z" fill="#6FBF44"/>
<path d="M229.58 279.028C229.58 279.028 238.774 305.053 241.412 343.702C244.05 382.351 247.403 570.948 247.403 570.948" stroke="white" stroke-width="1.3" stroke-linecap="round"/>
<path fill-rule="evenodd" clip-rule="evenodd" d="M152.48 280.888C152.48 280.888 174.157 283.791 197.204 283.791C220.251 283.791 235.685 280.888 235.685 280.888H152.48Z" fill="white"/>
<path fill-rule="evenodd" clip-rule="evenodd" d="M176.57 173.347C176.57 173.347 143.738 176.099 130.38 186.601C117.022 197.102 95.2135 238.597 95.2135 238.597L123.643 259.715L138.26 238.597C138.26 238.597 141.495 272.358 152.48 280.888H235.685C235.685 280.888 248.499 269.602 252.591 238.597L302.909 234.365L299.628 194.625C299.628 194.625 248.738 172.601 202.719 173.431L176.57 173.347Z" fill="url(#paint13_linear_0_6)"/>
<path fill-rule="evenodd" clip-rule="evenodd" d="M101.735 232.568C97.7184 230.212 94.4319 235.497 90.7965 240.879C87.1611 246.261 84.4018 246.428 90.2843 250.066C96.1669 253.704 116.658 272.861 120.011 270.003C123.364 267.145 123.077 258.855 125.794 258.278C128.511 257.7 132.583 256.081 126.877 250.012C121.171 243.944 105.751 234.923 101.735 232.568Z" fill="#6FBF44"/>
<path fill-rule="evenodd" clip-rule="evenodd" d="M281.106 217.131C281.106 228.209 284.164 238.181 304.277 238.209C324.39 238.236 329.445 209.436 324.321 200.893C319.197 192.35 311.541 178.562 297.853 182.745C284.164 186.928 281.106 206.052 281.106 217.131Z" fill="#6FBF44"/>
<path fill-rule="evenodd" clip-rule="evenodd" d="M321.006 199.433C319.71 211.768 315.324 226.933 302.609 225.596C289.895 224.26 285.589 201.517 291.786 174.418C297.982 147.318 308.84 103.23 308.84 103.23L308.555 102.816C303.257 95.1409 299.497 86.5117 297.483 77.4059L294.461 71.2722C293.99 70.3148 294.312 69.1559 295.211 68.5796C295.945 68.1087 296.893 68.1411 297.594 68.6609L301.087 71.2546C302.03 71.9544 302.815 72.8442 303.393 73.8663L307.535 81.1992L307.503 52.8845C307.501 51.6177 308.464 50.5576 309.725 50.4371C311.06 50.3094 312.251 51.2767 312.399 52.6098L314.651 72.8245L318.829 49.3885C319.07 48.039 320.312 47.1047 321.675 47.248C323.054 47.3929 324.08 48.5894 324.012 49.9743L322.858 73.6872L329.71 56.0938C330.192 54.855 331.565 54.216 332.824 54.6443C334.095 55.0771 334.796 56.4337 334.403 57.7184C332.68 63.3498 328.435 77.3392 328.982 76.6786C329.495 76.06 332.64 70.2937 334.188 67.4358C334.68 66.527 335.77 66.1226 336.735 66.4923C337.776 66.891 338.309 68.0471 337.936 69.0976L330.451 90.1932L326.688 104.194C326.688 104.194 322.303 187.097 321.006 199.433Z" fill="#FFD1AB"/>
<path d="M308.076 79.9682C308.076 79.9682 320.056 87.7613 319.515 92.9093" stroke="white" stroke-width="1.3" stroke-linecap="round"/>
<path d="M330.784 77.019C330.784 77.019 323.618 71.7648 312.073 72.3784" stroke="white" stroke-width="1.3" stroke-linecap="round"/>
<path fill-rule="evenodd" clip-rule="evenodd" d="M174.022 140.877C174.022 140.877 177.256 150.678 175.639 160.377C174.022 170.076 174.022 173.836 171.409 175.386C171.409 175.386 181.24 183.93 190.981 183.93C200.721 183.93 209.683 175.386 209.683 175.386C209.683 175.386 203.928 173.304 203.928 162.254C203.928 151.204 204.711 137.756 204.711 137.756L174.022 140.877Z" fill="#FFD1AB"/>
<path fill-rule="evenodd" clip-rule="evenodd" d="M204.23 147.612C204.028 152.801 203.928 157.681 203.928 162.254C203.928 167.424 204.873 171.122 206.762 173.347C188.023 166.021 177.845 160.857 176.23 157.853C176.287 156.247 176.259 154.673 176.171 153.173C176.146 151.798 176.048 150.422 175.877 149.044L204.23 147.612Z" fill="#CF8B54"/>
<path fill-rule="evenodd" clip-rule="evenodd" d="M169.934 139.64C163.204 129.307 161.116 109.823 175.77 105.529C176.765 90.839 210.114 97.1888 214.358 112.842C218.601 128.495 209.87 150.658 197.588 153.312C185.306 155.966 176.664 149.973 169.934 139.64Z" fill="#18233D"/>
<path d="M182.38 106.965C182.38 106.965 194.787 111.257 202.719 111.257" stroke="white" stroke-width="1.3" stroke-linecap="round"/>
<path fill-rule="evenodd" clip-rule="evenodd" d="M176.569 114.162C180.517 112.63 191.151 116.193 195.765 116.983C199.434 117.612 204.389 118.68 206.762 115.071C206.024 134.938 207.696 129.351 209.755 129.574C210.175 129.448 210.619 129.38 211.079 129.38C213.671 129.38 215.772 131.528 215.772 134.178C215.772 136.827 213.671 138.975 211.079 138.975C209.87 138.975 208.769 138.508 207.937 137.741C207.943 146.148 204.395 162.055 189.8 162.055C175.206 162.055 173.631 148.989 171.871 137.408C171.553 137.478 171.222 137.515 170.883 137.515C168.291 137.515 166.19 135.367 166.19 132.718C166.19 130.068 168.291 127.92 170.883 127.92C171.066 127.92 171.026 130.444 171.871 130.148C174.329 128.801 173.882 121.914 176.569 114.162Z" fill="#FFD1AB"/>
<path d="M185.365 149.045C185.365 149.045 187.44 151.645 191.865 149.045" stroke="#18233D" stroke-width="1.3" stroke-linecap="round"/>
<path d="M188.204 131.435C189.125 134.907 186.197 142.202 185.596 144.116C184.996 146.03 188.437 144.116 188.437 144.116" stroke="#18233D" stroke-width="1.3" stroke-linecap="round"/>
<path d="M193.426 127.524C193.426 127.524 197.528 125.573 201.751 128.269" stroke="#18233D" stroke-width="1.3" stroke-linecap="round"/>
<path d="M176.655 127.939C176.655 127.939 180.529 125.571 185.013 127.813" stroke="#18233D" stroke-width="1.3" stroke-linecap="round"/>
<ellipse cx="197.07" cy="131.446" rx="1.30478" ry="1.29794" fill="#18233D"/>
<ellipse cx="181.412" cy="131.446" rx="1.30478" ry="1.29794" fill="#18233D"/>
<path d="M209.683 135.339L212.292 134.474" stroke="#18233D" stroke-width="1.3" stroke-linecap="round"/>
<path d="M171.409 133.609L168.8 132.744" stroke="#18233D" stroke-width="1.3" stroke-linecap="round"/>
<path d="M215.444 126.705L217.48 136.472" stroke="white" stroke-width="1.3" stroke-linecap="round"/>
<rect x="184.854" y="200.638" width="24.7" height="45.5" rx="1.3" fill="#FE8B6E"/>
<path fill-rule="evenodd" clip-rule="evenodd" d="M90.2844 250.066C90.2844 250.066 78.4333 284.57 99.9504 291.028C121.467 297.486 182.651 244.83 182.651 244.83C182.651 244.83 199.335 241.544 201.751 232.533C204.167 223.521 205.077 215.058 205.077 215.058L184.84 224.348V217.848C184.84 217.848 179.757 220.157 177.335 226.642C165.447 232.633 104.119 259.715 104.119 259.715L90.2844 250.066Z" fill="#FFD1AB"/>
<path d="M204.375 221.365C204.375 221.365 199.281 225.547 196.575 226.565" stroke="#18233D" stroke-width="1.3" stroke-linecap="round"/>
<path d="M204.375 225.265C204.375 225.265 199.281 229.447 196.575 230.465" stroke="#18233D" stroke-width="1.3" stroke-linecap="round"/>
<path d="M201.775 231.765C201.775 231.765 198.379 234.901 196.575 235.665" stroke="#18233D" stroke-width="1.3" stroke-linecap="round"/>
<path d="M97.2569 262.281C97.2569 262.281 126.759 249.588 137.84 244.092" stroke="white" stroke-width="1.3" stroke-linecap="round"/>
<path fill-rule="evenodd" clip-rule="evenodd" d="M391.833 136.01C391.833 136.01 379.593 135.271 376.74 145.193C373.886 155.114 375.04 195.407 364.249 205.013C353.458 214.619 381.481 237.638 414.52 228.265C447.559 218.893 445.945 208.505 441.272 200.349C436.599 192.194 436.052 152.868 421.789 137.207C407.526 121.546 391.833 136.01 391.833 136.01Z" fill="#18233D"/>
<path fill-rule="evenodd" clip-rule="evenodd" d="M359.756 288.366C359.756 288.366 349.864 341.515 357.268 370.405C364.671 399.295 378.857 455.903 378.857 455.903C378.857 455.903 370.448 475.553 370.448 506.565C370.448 537.578 366.478 571.065 366.478 571.065H389.103C389.103 571.065 412.033 466.997 415.075 442.884C416.268 433.434 408.452 389.376 406.563 353.179C405.239 327.802 407.786 278.565 407.786 278.565L359.756 288.366Z" fill="url(#paint14_linear_0_6)"/>
<path fill-rule="evenodd" clip-rule="evenodd" d="M438.861 287.665L500.999 571.065H477.939C477.939 571.065 452.695 512.961 448.99 500.145C445.285 487.329 442.499 463.051 442.499 463.051C442.499 463.051 415.363 381.926 405.708 353.687C394.991 322.339 385.46 307.084 383.999 287.665H438.861Z" fill="url(#paint15_linear_0_6)"/>
<path fill-rule="evenodd" clip-rule="evenodd" d="M390.344 197.965C390.344 197.965 363.457 198.882 357.369 208.43C351.282 217.979 363.995 262.932 363.995 262.932C363.995 262.932 355.524 289.432 357.369 293.773C359.215 298.113 440.439 296.454 443.861 296.454C447.282 296.454 436.875 262.932 436.875 262.932C436.875 262.932 452.899 228.909 452.899 213.437C452.899 197.965 390.344 197.965 390.344 197.965Z" fill="#6FBF44"/>
<path fill-rule="evenodd" clip-rule="evenodd" d="M357.999 294.743L406.413 243.465L426.899 245.336L411.067 250.181L412.565 252.343C412.565 252.343 400.486 274.513 392.449 282.961C384.411 291.409 372.426 296.765 372.426 296.765C372.426 296.765 365.74 296.638 362.215 296.144C358.69 295.65 357.999 294.743 357.999 294.743Z" fill="#2B8C6B"/>
<path d="M400.899 138.165C400.899 138.165 415.762 156.365 424.299 156.365" stroke="white" stroke-width="1.3" stroke-linecap="round"/>
<path fill-rule="evenodd" clip-rule="evenodd" d="M389.384 169.065C389.384 169.065 391.842 177.921 390.613 186.685C389.384 195.449 389.384 198.846 387.397 200.247C387.397 200.247 384.88 218.062 400.847 219.237C416.813 220.412 416.488 200.247 416.488 200.247C416.488 200.247 412.114 198.366 412.114 188.381C412.114 178.396 412.71 166.245 412.71 166.245L389.384 169.065Z" fill="#FFD1AB"/>
<path fill-rule="evenodd" clip-rule="evenodd" d="M412.253 175.151C412.101 179.839 412.025 184.249 412.025 188.381C412.025 193.053 412.737 196.394 414.161 198.404C400.04 191.785 392.371 187.118 391.154 184.404C391.198 182.953 391.176 181.531 391.11 180.175C391.091 178.933 391.017 177.689 390.888 176.444L412.253 175.151Z" fill="#CF8B54"/>
<path fill-rule="evenodd" clip-rule="evenodd" d="M394.679 146.922C401.019 145.078 402.194 151.038 406.358 154.148C410.522 157.259 417.037 159.825 418.881 160.026C419.256 159.912 419.654 159.851 420.065 159.851C422.385 159.851 424.266 161.792 424.266 164.186C424.266 166.58 422.385 168.521 420.065 168.521C418.984 168.521 417.997 168.099 417.253 167.406C417.258 175.003 414.082 189.375 401.019 189.375C387.955 189.375 386.546 177.57 384.97 167.105C384.685 167.169 384.389 167.202 384.086 167.202C381.766 167.202 379.885 165.261 379.885 162.867C379.885 160.473 381.766 158.532 384.086 158.532C384.249 158.532 394.535 154.924 394.679 146.922Z" fill="#FFD1AB"/>
<path d="M399.59 161.708C400.414 164.845 397.793 171.437 397.256 173.166C396.718 174.896 399.799 173.166 399.799 173.166" stroke="#18233D" stroke-width="1.3" stroke-linecap="round"/>
<path d="M404.264 158.174C404.264 158.174 407.936 156.411 411.716 158.847" stroke="#18233D" stroke-width="1.3" stroke-linecap="round"/>
<path d="M389.252 158.549C389.252 158.549 392.72 156.41 396.733 158.435" stroke="#18233D" stroke-width="1.3" stroke-linecap="round"/>
<ellipse cx="407.526" cy="161.717" rx="1.16792" ry="1.1728" fill="#18233D"/>
<ellipse cx="393.511" cy="161.717" rx="1.16792" ry="1.1728" fill="#18233D"/>
<path fill-rule="evenodd" clip-rule="evenodd" d="M396.236 177.505L403.362 176.964C403.362 176.964 402.35 180.563 399.799 180.563C397.248 180.563 396.236 177.505 396.236 177.505Z" fill="white"/>
<path d="M418.816 165.236L421.151 164.454" stroke="#18233D" stroke-width="1.3" stroke-linecap="round"/>
<path d="M384.557 163.672L382.221 162.89" stroke="#18233D" stroke-width="1.3" stroke-linecap="round"/>
<path fill-rule="evenodd" clip-rule="evenodd" d="M536.645 183.648C532.682 193.456 527.927 207.634 517.576 203.452C507.226 199.27 508.916 179.561 520.43 158.826C531.944 138.09 551.328 104.544 551.328 104.544L551.154 104.046C548.521 96.522 547.39 88.5545 547.823 80.5948L546.728 74.8716C546.551 73.9519 547.106 73.0496 548.006 72.7911C548.716 72.5873 549.478 72.8348 549.932 73.4166L552.264 76.4016C552.902 77.2177 553.362 78.1582 553.614 79.1627L555.369 86.1472L561.926 62.9604C562.229 61.8897 563.3 61.2281 564.393 61.4365C565.536 61.6546 566.297 62.7446 566.108 63.8932L563.288 81.0011L572.234 62.8259C572.763 61.7517 574.031 61.2675 575.141 61.716C576.264 62.1698 576.838 63.4211 576.45 64.5686L569.97 83.7008L579.805 70.9421C580.507 70.0304 581.8 69.8271 582.749 70.4792C583.722 71.148 583.985 72.4655 583.338 73.4527C580.557 77.6917 573.798 88.0494 574.409 87.6419C574.982 87.259 578.957 83.2969 580.924 81.3253C581.554 80.6935 582.552 80.6188 583.268 81.1511C584.055 81.736 584.225 82.8447 583.651 83.6394L572.489 99.089L566.07 109.666C566.07 109.666 540.608 173.84 536.645 183.648Z" fill="#FFD1AB"/>
<path d="M556.653 85.2525C556.653 85.2525 565.037 94.538 563.406 98.5768" stroke="white" stroke-width="1.3" stroke-linecap="round"/>
<path d="M576.279 89.2691C576.279 89.2691 571.466 83.0683 561.507 80.7724" stroke="white" stroke-width="1.3" stroke-linecap="round"/>
<path fill-rule="evenodd" clip-rule="evenodd" d="M432.099 202.366L458.366 198.671L506.624 175.756L548.722 106.965L569.899 112.443C569.899 112.443 539.367 192.081 528.343 203.482C517.319 214.884 439.509 247.365 439.509 247.365L432.099 202.366Z" fill="#6FBF44"/>
<path d="M506.199 175.865L508.799 183.665" stroke="white" stroke-width="1.3" stroke-linecap="round"/>
<path fill-rule="evenodd" clip-rule="evenodd" d="M412.135 191.473C412.135 191.473 419.864 191.697 422.302 199.717C424.74 207.737 423.088 233.799 431.085 240.559L423.226 249.635C423.226 249.635 389.413 241.383 380.583 220.55C371.753 199.717 390.153 191.674 390.153 191.674L388.816 198.295C388.816 198.295 381.842 204.372 384.855 213.39C387.868 222.407 407.992 237.736 418.011 239.78C416.075 230.939 414.611 215.238 415.584 206.662C416.557 198.086 411.82 195.595 411.82 195.595L412.135 191.473Z" fill="url(#paint16_linear_0_6)"/>
<mask id="mask4_0_6" style="mask-type:luminance" maskUnits="userSpaceOnUse" x="378" y="191" width="54" height="59">
<path fill-rule="evenodd" clip-rule="evenodd" d="M412.135 191.473C412.135 191.473 419.864 191.697 422.302 199.717C424.74 207.737 423.088 233.799 431.085 240.559L423.226 249.635C423.226 249.635 389.413 241.383 380.583 220.55C371.753 199.717 390.153 191.674 390.153 191.674L388.816 198.295C388.816 198.295 381.842 204.372 384.855 213.39C387.868 222.407 407.992 237.736 418.011 239.78C416.075 230.939 414.611 215.238 415.584 206.662C416.557 198.086 411.82 195.595 411.82 195.595L412.135 191.473Z" fill="white"/>
</mask>
<g mask="url(#mask4_0_6)">
<path fill-rule="evenodd" clip-rule="evenodd" d="M423.398 206.532L415.412 208.609C415.457 207.927 415.515 207.276 415.584 206.662C416.233 200.945 414.978 197.256 411.82 195.595L412.135 191.473C417.288 191.622 420.677 194.37 422.302 199.717C422.798 201.348 423.125 203.724 423.398 206.532ZM380.404 199.27C382.507 196.097 385.86 193.496 390.464 191.465L389.127 198.086C387.271 199.687 385.917 201.421 385.064 203.288L380.404 199.27Z" fill="url(#paint17_linear_0_6)"/>
<path d="M411.255 192.596C411.255 192.596 419.063 193.478 420.683 203.022C422.302 212.566 417.893 227.344 424.72 239.81" stroke="white" stroke-width="1.69"/>
<path fill-rule="evenodd" clip-rule="evenodd" d="M418.011 239.78L423.226 249.635C423.226 249.635 413.95 246.93 410.225 245.819C406.501 244.708 407.307 235.006 407.307 235.006C407.307 235.006 410.875 237.213 413.032 238.175C415.189 239.137 418.011 239.78 418.011 239.78Z" fill="url(#paint18_linear_0_6)"/>
<path d="M389.847 194.625C389.847 194.625 381.927 197.342 380.583 207.737C379.238 218.132 394.14 238.274 417.528 244.758" stroke="white" stroke-width="1.3" stroke-linecap="round"/>
</g>
<ellipse cx="11.1288" cy="13.1577" rx="11.1288" ry="13.1577" transform="matrix(-0.309017 0.951057 0.951057 0.309017 425.646 235.865)" fill="#F5BB37"/>
<mask id="mask5_0_6" style="mask-type:luminance" maskUnits="userSpaceOnUse" x="421" y="239" width="27" height="23">
<ellipse cx="11.1288" cy="13.1577" rx="11.1288" ry="13.1577" transform="matrix(-0.309017 0.951057 0.951057 0.309017 425.646 235.865)" fill="white"/>
</mask>
<g mask="url(#mask5_0_6)">
<path d="M425.792 249.088L421.652 254.934L420.024 253.731L424.164 247.884L425.792 249.088Z" fill="url(#paint19_linear_0_6)"/>
<path d="M429.098 254.985L426.111 259.557L424.442 258.415L427.429 253.842L429.098 254.985Z" fill="url(#paint20_linear_0_6)"/>
<path d="M434.063 257.792L432.226 262.525L430.37 261.748L432.207 257.015L434.063 257.792Z" fill="url(#paint21_linear_0_6)"/>
<path d="M439.736 257.543L437.667 263.452L435.695 263.117L437.764 257.209L439.736 257.543Z" fill="url(#paint22_linear_0_6)"/>
<path d="M444.723 256.876L443.635 260.721L441.674 261.04L442.763 257.195L444.723 256.876Z" fill="url(#paint23_linear_0_6)"/>
</g>
<ellipse cx="11.1288" cy="13.1577" rx="11.1288" ry="13.1577" transform="matrix(-0.309017 0.951057 0.951057 0.309017 426.538 234.208)" fill="url(#paint24_linear_0_6)"/>
<ellipse cx="8.42177" cy="9.8432" rx="8.42177" ry="9.8432" transform="matrix(-0.309017 0.951057 0.951057 0.309017 428.854 237.807)" stroke="white" stroke-width="0.845"/>
<path d="M430.384 249.62C430.087 249.525 429.859 249.27 429.79 248.955C429.72 248.639 429.823 248.329 430.059 248.145L432.154 246.507C432.243 246.438 432.29 246.324 432.28 246.203L432.048 243.363C432.022 243.044 432.168 242.755 432.429 242.611C432.69 242.466 433.012 242.495 433.268 242.686L435.554 244.388C435.652 244.461 435.773 244.481 435.88 244.442L438.378 243.533C438.659 243.431 438.977 243.508 439.208 243.734C439.438 243.961 439.534 244.289 439.457 244.591L438.776 247.279C438.747 247.394 438.774 247.521 438.85 247.618L440.625 249.896C440.782 250.097 440.848 250.34 440.811 250.581C440.754 250.955 440.445 251.231 440.072 251.226L437.365 251.186C437.252 251.184 437.144 251.245 437.085 251.341L435.685 253.658C435.617 253.771 435.526 253.859 435.416 253.92C435.215 254.031 434.971 254.039 434.746 253.942C434.522 253.846 434.351 253.661 434.264 253.423L433.273 250.709C433.231 250.593 433.138 250.503 433.025 250.467L430.384 249.62Z" fill="url(#paint25_linear_0_6)"/>
<path fill-rule="evenodd" clip-rule="evenodd" d="M364.619 202.636C364.619 202.636 352.922 205.203 348.473 220.377C344.024 235.551 330.622 267.314 335.75 285.918C337.878 293.639 347.06 296.887 358.444 294.889C374.488 292.072 389.474 278.665 406.099 253.004L395.583 243.034L361.908 264.561L364.619 202.636Z" fill="#6FBF44"/>
<path d="M361.899 264.265L352.799 273.365" stroke="white" stroke-width="1.3" stroke-linecap="round"/>
<path d="M367.789 236.965C365.841 248.906 361.899 264.265 361.899 264.265L395.699 243.134" stroke="white" stroke-width="1.3" stroke-linecap="round"/>
<rect x="409.999" y="216.165" width="16.9" height="31.2" rx="1.3" fill="#FE8B6E"/>
<path fill-rule="evenodd" clip-rule="evenodd" d="M396.999 244.142C396.999 244.142 404.26 234.898 406.188 231.936C408.117 228.973 410.312 225.905 410.312 225.905V231.936C410.312 231.936 422.503 226.326 423.208 222.665C424.315 230.004 425.673 232.117 421.149 239.604C416.624 247.09 403.95 251.265 403.95 251.265L396.999 244.142Z" fill="#FFD1AB"/>
<path d="M424.299 227.865C424.299 227.865 419.204 232.047 416.499 233.065" stroke="#18233D" stroke-width="1.3" stroke-linecap="round"/>
<path d="M424.299 231.765C424.299 231.765 419.204 235.947 416.499 236.965" stroke="#18233D" stroke-width="1.3" stroke-linecap="round"/>
<path d="M421.699 238.265C421.699 238.265 418.302 241.401 416.499 242.165" stroke="#18233D" stroke-width="1.3" stroke-linecap="round"/>
</g>
<path fill-rule="evenodd" clip-rule="evenodd" d="M300.3 10.1724C304.671 9.57491 307.671 8.70583 309.3 7.56514C310.929 6.42444 312.771 3.90273 314.828 0C314.309 3.97148 314.898 7.16786 316.593 9.58914C318.288 12.0104 321.091 13.6566 325 14.5276C320.563 14.9707 317.515 15.7723 315.859 16.9324C314.202 18.0925 312.406 20.6817 310.472 24.7C310.306 20.0695 309.642 16.9257 308.482 15.2686C307.321 13.6114 304.594 11.9127 300.3 10.1724Z" fill="#0ACC94"/>
<path fill-rule="evenodd" clip-rule="evenodd" d="M61.1 327.372C65.4706 326.775 68.4705 325.906 70.0996 324.765C71.7287 323.624 73.5714 321.103 75.6276 317.2C75.1091 321.171 75.6975 324.368 77.3929 326.789C79.0883 329.21 81.8907 330.857 85.8 331.728C81.3626 332.171 78.3155 332.972 76.6586 334.132C75.0018 335.293 73.2064 337.882 71.2724 341.9C71.1057 337.27 70.4422 334.126 69.2818 332.469C68.1215 330.811 65.3942 329.113 61.1 327.372Z" fill="#0ACC94"/>
<path fill-rule="evenodd" clip-rule="evenodd" d="M79.3 121.974C87.5812 120.842 93.2652 119.195 96.3519 117.034C99.4386 114.873 102.93 110.095 106.826 102.7C105.844 110.225 106.958 116.281 110.171 120.869C113.383 125.457 118.693 128.576 126.1 130.226C117.692 131.066 111.919 132.584 108.78 134.782C105.64 136.981 102.238 141.886 98.5739 149.5C98.2582 140.726 97.001 134.77 94.8024 131.63C92.6038 128.49 87.4364 125.271 79.3 121.974Z" fill="#0ACC94"/>
<path fill-rule="evenodd" clip-rule="evenodd" d="M508.3 292.274C516.581 291.142 522.265 289.495 525.352 287.334C528.439 285.173 531.93 280.395 535.826 273C534.844 280.525 535.958 286.581 539.171 291.169C542.383 295.757 547.693 298.876 555.1 300.526C546.692 301.366 540.919 302.884 537.78 305.083C534.64 307.281 531.238 312.186 527.574 319.8C527.258 311.027 526.001 305.07 523.802 301.93C521.604 298.79 516.436 295.571 508.3 292.274Z" fill="#026753"/>
<defs>
<linearGradient id="paint0_linear_0_6" x1="95.2135" y1="173.347" x2="95.2135" y2="280.888" gradientUnits="userSpaceOnUse">
<stop stop-color="#354970"/>
<stop offset="1" stop-color="#18233D"/>
</linearGradient>
<linearGradient id="paint1_linear_0_6" x1="354.099" y1="278.565" x2="354.099" y2="571.065" gradientUnits="userSpaceOnUse">
<stop stop-color="#354970"/>
<stop offset="1" stop-color="#18233D"/>
</linearGradient>
<linearGradient id="paint2_linear_0_6" x1="383.999" y1="287.665" x2="383.999" y2="571.065" gradientUnits="userSpaceOnUse">
<stop stop-color="#354970"/>
<stop offset="1" stop-color="#18233D"/>
</linearGradient>
<linearGradient id="paint3_linear_0_6" x1="374.095" y1="241.735" x2="427.614" y2="248.405" gradientUnits="userSpaceOnUse">
<stop stop-color="#FCEA91"/>
<stop offset="1" stop-color="#FFD757"/>
</linearGradient>
<linearGradient id="paint4_linear_0_6" x1="414.123" y1="200.296" x2="414.33" y2="185.699" gradientUnits="userSpaceOnUse">
<stop stop-color="#FFDD67"/>
<stop offset="1" stop-color="#F5BB37"/>
</linearGradient>
<linearGradient id="paint5_linear_0_6" x1="405.657" y1="247.81" x2="417.568" y2="251.08" gradientUnits="userSpaceOnUse">
<stop stop-color="#FDE175"/>
<stop offset="1" stop-color="#F5BB37"/>
</linearGradient>
<linearGradient id="paint6_linear_0_6" x1="424.899" y1="247.477" x2="427.298" y2="251.805" gradientUnits="userSpaceOnUse">
<stop stop-color="#FA904A"/>
<stop offset="1" stop-color="#DB6742"/>
</linearGradient>
<linearGradient id="paint7_linear_0_6" x1="428.221" y1="253.403" x2="430.335" y2="257.216" gradientUnits="userSpaceOnUse">
<stop stop-color="#FA904A"/>
<stop offset="1" stop-color="#DB6742"/>
</linearGradient>
<linearGradient id="paint8_linear_0_6" x1="433.297" y1="256.411" x2="435.638" y2="260.634" gradientUnits="userSpaceOnUse">
<stop stop-color="#FA904A"/>
<stop offset="1" stop-color="#DB6742"/>
</linearGradient>
<linearGradient id="paint9_linear_0_6" x1="439.131" y1="256.451" x2="441.755" y2="261.186" gradientUnits="userSpaceOnUse">
<stop stop-color="#FA904A"/>
<stop offset="1" stop-color="#DB6742"/>
</linearGradient>
<linearGradient id="paint10_linear_0_6" x1="444.398" y1="256.289" x2="446.098" y2="259.356" gradientUnits="userSpaceOnUse">
<stop stop-color="#FA904A"/>
<stop offset="1" stop-color="#DB6742"/>
</linearGradient>
<linearGradient id="paint11_linear_0_6" x1="-1.51153" y1="22.7413" x2="20.8614" y2="25.3114" gradientUnits="userSpaceOnUse">
<stop stop-color="#FCEA91"/>
<stop offset="1" stop-color="#FFD757"/>
</linearGradient>
<linearGradient id="paint12_linear_0_6" x1="437.172" y1="239.982" x2="442.669" y2="249.899" gradientUnits="userSpaceOnUse">
<stop stop-color="white"/>
<stop offset="1" stop-color="#FCE5C2"/>
</linearGradient>
<linearGradient id="paint13_linear_0_6" x1="95.2135" y1="173.347" x2="95.2135" y2="280.888" gradientUnits="userSpaceOnUse">
<stop stop-color="#354970"/>
<stop offset="1" stop-color="#18233D"/>
</linearGradient>
<linearGradient id="paint14_linear_0_6" x1="354.099" y1="278.565" x2="354.099" y2="571.065" gradientUnits="userSpaceOnUse">
<stop stop-color="#354970"/>
<stop offset="1" stop-color="#18233D"/>
</linearGradient>
<linearGradient id="paint15_linear_0_6" x1="383.999" y1="287.665" x2="383.999" y2="571.065" gradientUnits="userSpaceOnUse">
<stop stop-color="#354970"/>
<stop offset="1" stop-color="#18233D"/>
</linearGradient>
<linearGradient id="paint16_linear_0_6" x1="374.095" y1="241.735" x2="427.614" y2="248.405" gradientUnits="userSpaceOnUse">
<stop stop-color="#FCEA91"/>
<stop offset="1" stop-color="#FFD757"/>
</linearGradient>
<linearGradient id="paint17_linear_0_6" x1="414.123" y1="200.296" x2="414.33" y2="185.699" gradientUnits="userSpaceOnUse">
<stop stop-color="#FFDD67"/>
<stop offset="1" stop-color="#F5BB37"/>
</linearGradient>
<linearGradient id="paint18_linear_0_6" x1="405.657" y1="247.81" x2="417.568" y2="251.08" gradientUnits="userSpaceOnUse">
<stop stop-color="#FDE175"/>
<stop offset="1" stop-color="#F5BB37"/>
</linearGradient>
<linearGradient id="paint19_linear_0_6" x1="424.899" y1="247.477" x2="427.298" y2="251.805" gradientUnits="userSpaceOnUse">
<stop stop-color="#FA904A"/>
<stop offset="1" stop-color="#DB6742"/>
</linearGradient>
<linearGradient id="paint20_linear_0_6" x1="428.221" y1="253.403" x2="430.335" y2="257.216" gradientUnits="userSpaceOnUse">
<stop stop-color="#FA904A"/>
<stop offset="1" stop-color="#DB6742"/>
</linearGradient>
<linearGradient id="paint21_linear_0_6" x1="433.297" y1="256.411" x2="435.638" y2="260.634" gradientUnits="userSpaceOnUse">
<stop stop-color="#FA904A"/>
<stop offset="1" stop-color="#DB6742"/>
</linearGradient>
<linearGradient id="paint22_linear_0_6" x1="439.131" y1="256.451" x2="441.755" y2="261.186" gradientUnits="userSpaceOnUse">
<stop stop-color="#FA904A"/>
<stop offset="1" stop-color="#DB6742"/>
</linearGradient>
<linearGradient id="paint23_linear_0_6" x1="444.398" y1="256.289" x2="446.098" y2="259.356" gradientUnits="userSpaceOnUse">
<stop stop-color="#FA904A"/>
<stop offset="1" stop-color="#DB6742"/>
</linearGradient>
<linearGradient id="paint24_linear_0_6" x1="-1.51153" y1="22.7413" x2="20.8614" y2="25.3114" gradientUnits="userSpaceOnUse">
<stop stop-color="#FCEA91"/>
<stop offset="1" stop-color="#FFD757"/>
</linearGradient>
<linearGradient id="paint25_linear_0_6" x1="437.172" y1="239.982" x2="442.669" y2="249.899" gradientUnits="userSpaceOnUse">
<stop stop-color="white"/>
<stop offset="1" stop-color="#FCE5C2"/>
</linearGradient>
</defs>
</svg>
